<svg xmlns="http://www.w3.org/2000/svg" viewBox="0 0 100 100" role="img" aria-label="Globe">
  <title>Geo Draw the World</title>
  <defs>
    <radialGradient id="ocean" cx="37%" cy="31%" r="72%">
      <stop offset="0" stop-color="#3a82c4"/>
      <stop offset="0.58" stop-color="#1f5288"/>
      <stop offset="1" stop-color="#0e2c4c"/>
    </radialGradient>
    <clipPath id="globe"><circle cx="50" cy="50" r="44"/></clipPath>
  </defs>
  <circle cx="50" cy="50" r="44" fill="url(#ocean)"/>
  <g clip-path="url(#globe)">
    <path d="M48.3 6L48.9 6.2M42.4 6.7L46.4 6.5M28.4 11.7L36.4 8.4L44.9 6.9M17.5 79.7L13.9 75L11 69.9L8.8 64.4L7.5 58.6L7 49.6L7.8 43.7L9.3 37.8L11.7 32.2L14.7 26.9L18.5 22L22.9 17.7L27.8 14.1L33.2 11.1L38.9 8.9L44.8 7.5M38.3 92.4L34.1 90.6L30.3 88.1L26.9 84.8L22.6 78.6L20.4 73.7L18.1 65.6L17.3 56.9L17.5 50.8L19.1 41.8L20.9 35.9L23.2 30.3L26.1 25.1L29.4 20.4L35.2 14.4L41.5 10L46 8M46.9 93.9L44.3 92.7L42.6 90.8L41.1 88.2L39.1 82.8L37 70.9L36.4 56.4L37.5 41.2L40.1 27L43.8 15.6L46.5 10.7L48.3 8.3M52.1 93.9L53.9 92.8L55 91L57.3 83L58.7 71.1L59.1 56.7L58.4 41.4L56.7 27.2L54.2 15.7L51.1 8.4M58.6 93.1L64.3 90.9L67.7 88.5L70.8 85.2L74.7 79.1L76.7 74.4L78.2 69.1L79.1 63.4L79.4 54.5L78.4 45.4L77.1 39.4L74.1 30.9L71.5 25.6L66.9 18.6L63.4 14.7L57.6 10.2L53.6 8.1M75.2 86.1L79.6 82.4L83.4 78.2L86.6 73.3L89.1 68.1L90.8 62.4L91.7 56.6L91.5 47.6L90.4 41.6L87.3 33L84.3 27.6L80.6 22.7L76.3 18.3L71.6 14.6L66.4 11.5L60.8 9.2L55.1 7.6M79.4 17.2L74.7 13.7L69.5 10.8L61.1 7.9L55.2 7.1M58.5 6.8L54 6.5M52.6 6.1L51.7 6.2M29.9 89.1L37.7 91.1L49.2 91.8L61 91.2L65.8 90.4L70.1 89.1M12.3 72.6L13.4 73.7L16.4 75.2L24.5 77.4L35.7 78.9L48.7 79.4L61.8 79.1L75.5 77.4L83.6 75.2L86.6 73.7L87.7 72.6M6 50L6.4 51.3L8.7 53.1L12.7 54.8L18.3 56.4L30.7 58.2L48.5 59.1L63.6 58.7L79.4 56.8L85.6 55.4L90.2 53.7L93 51.9L94 50M12 27.9L12.3 29.6L13.4 30.7L16.4 32.2L20.8 33.6L33.3 35.6L48.7 36.4L64.3 35.8L77.4 34L82.3 32.7L85.8 31.2L87.7 29.6L88 27.9M29.3 11.2L28.2 12.1L28.2 13.4L29.9 14.6L32.2 15.4L39 16.7L49.2 17.3L59.6 16.8L67.8 15.4L70.1 14.6L71.8 13.4L71.8 12.1L70.7 11.2" fill="none" stroke="#cfe2f6" stroke-width="0.4" opacity="0.22"/>
    <path d="M44.2 31.4L43.3 33.5L44.2 34.8L44.5 37L44.1 39.2L44.6 40.3L45.8 41.2L41.3 44.1L39.4 44.3L39.4 43.7L32.4 37.5L32.7 36.5L36.1 35.1L36.1 34.6L37.7 34.4L37.6 32.3L39.8 31.4ZM54.5 67.1L54.5 68.5L53 68.6L53 70.8L53.9 71.7L52 72L45.4 71.4L45.9 68.8L46.9 67.2L45.7 63.6L48.8 63.5L49.7 65.1L51 65L51.4 64.3L52.9 64.5L53.2 67.3ZM39.3 50L38.5 54L37.7 54.1L37.7 51.9L37.2 50.6L38.5 49.4ZM55.3 71.8L57.1 74.2L58 74.6L55.1 76.9L53.6 76.6L52.5 77.6L51.8 77.6L51.4 74.6L52.1 74.6L52.2 72.2ZM37.3 50.4L34.6 50.2L34.6 51.4L32.7 50.5L33.9 48.4L36.4 47.2L37 47.4L37.5 48.8L38.3 49.3L38.3 49.9ZM59.6 60.7L59.7 61.3L58.7 62.3L58.4 60.9ZM42.8 55.4L43.7 53.9L44.4 53.7L44.8 54.2L45.3 53.7L47.4 50.4L47.4 49.2L48.2 51.5L47 51.8L48.1 53.3L47.3 54.5L48.6 57.8L43.9 57.4L43.6 56ZM54.7 52.5L57.2 55.2L55.7 55L53.4 56L51.2 55.3L50.4 55.9L50.5 56.5L48.9 56.5L48.6 57.4L47.5 55.6L47.3 54.5L48.1 53.4L50.4 53L50.7 52.4L51.8 52.2L53.4 50.7ZM54.3 44.2L54.4 47.1L53.7 47.3L52.9 49.4L53.7 50.8L51.8 52.2L50.7 52.4L50.4 53L48.1 53.4L47 51.8L48.2 51.5L46.6 48.1L48.1 46.2L48.5 43.6L47.9 41.6L48.6 41.3ZM44.8 62L45.3 61.8L45.1 60.8L45.9 60.5L46.9 61L47.2 60.5L47.3 59.6L46.8 59.3L47.3 58.4L46.3 58.2L46.4 57.5L48.5 57.9L48.9 56.5L50.5 56.5L49.8 59.6L48.6 60.8L48.4 62.1L47.5 62.8L47.2 62.3L45.4 62.8ZM59.6 65L58.2 65.2L57.8 65.8L57.8 67.6L58.8 67.8L58.7 68.7L58.2 68.7L56.9 67.5L53.2 67.3L52.9 64.5L51.4 64.3L51 65L49.7 65.1L48.8 63.5L45.6 63.4L46 62.6L47.2 62.3L47.5 62.8L48.5 61.9L48.6 60.8L49.8 59.6L50.8 55.5L53.4 56L53.7 55.5L56.9 55.1L57.8 55.7L58.9 55.5L59.8 56.3L59.7 57.1L60.1 57.3L59.1 58.3L58.3 60.8L58.7 63.6ZM63.2 41.9L55 42.3L54.5 35.4L57.3 35.7L58.5 35L60.5 35.1L61.1 36.4L60.9 37.7L59.5 36.4L62.3 40.5L62.3 41.2ZM43.7 57.3L44.9 57.5L44.9 58.3L43.4 58.2ZM68.2 48.6L67.7 48.9L66 47.4L64.5 47.3L64.3 47.9L63.6 47.8L63.7 45.7L64.7 44.8L65.7 47L65.8 46.7L66.7 47.3ZM63 54.6L61.3 52.8L62.1 52.3L62.1 50.8L63.3 49L63.5 47.8L64.3 47.9L64.5 47.3L66.6 47.7L67.7 48.9L67.4 50L68.2 49.9L69 51.4L71.8 51.9L69.9 54.4L67.8 55.4L67 55.2L66.1 55.9L63.6 55.3ZM46.4 57.5L46.3 58.2L47.1 58.1L47.3 58.5L46.8 59.3L47.3 59.6L47.2 60.4L47 61L45.9 60.5L45.1 60.8L45.3 61.8L44.8 62L42.9 59.5L43.4 58.8L43.9 58.9L43.4 58.6L43.6 58.3L44.9 58.3L44.9 57.4ZM36.6 50.2L36.9 53.5L37.4 54.1L35 55L34.2 54.7L34.6 50.2ZM29.4 51.6L28.9 50.4L27.4 50.9L26.4 49.4L27.3 48.9L27.4 48.1L29.3 49L30.4 48.7L31.1 51.9L30.1 52.7L29.9 51.8ZM27.4 48.1L27.3 48.9L26.4 49.4L26.2 48.7L26.6 48.6L25.9 48.7L25.5 48.2ZM31 50.5L32.2 50.2L32.3 50.6L34.7 51.4L34.2 53.5L34.4 54.6L31.1 54.9L31.2 53.8L30.4 53.2L30.8 51.8L31.1 51.9ZM62.1 59.6L62.8 57.4L62.1 55.6L63 54.6L63.6 55.3L65.1 55.8L67.8 55.4L67.1 56.3L67.6 59.6L66 62ZM57.3 78.7L57.6 79L56.6 79.7L56 79.2ZM28.5 52.7L29.7 51.6L29.9 52.5L30.5 52.4L30.4 53.3L31.2 53.8L31.1 55ZM44.4 36.2L45.8 34L48.2 34.7L48.5 35.4L50.7 36.2L52 34.4L54.5 34.9L55 43.8L54.3 43.8L54.3 44.2L48.6 41.3L47.3 41.9L44.7 40.4L44.1 39.2ZM72.5 66.9L72.8 68.9L72.5 69.3L72.3 69L69.5 75.3L68.3 75.9L67.5 75.6L67.4 73.8L68.4 72.4L68.8 69.9L70.6 69.2L72 66.9ZM62.6 67.2L62.2 68.4L63.1 69.5L62.5 71L61.8 70.2L62.1 69.3L60.8 68.7L61.7 66.6L61.2 65.7L62.2 65.9ZM28.9 48.5L28.5 46.6L29.1 46.1L29.4 46.5L30.5 46.2L33.1 46.6L33.4 39.4L34.5 39.5L39.4 43.7L39.3 44.3L40.1 44.3L39.4 47.1L36.4 47.2L35 47.7L33.7 48.5L32.4 50.6L32.2 50.2L31 50.5L30.4 48.7L29.3 49ZM28.5 46.6L27.3 45L26.3 45L26 45.5L26.8 42.2L26.5 41.3L28.9 41.6L30.2 38.3L32.2 38.5L32.4 37.5L34.5 39.5L33.4 39.4L33.1 46.6L30.5 46.2L29.4 46.5L29.1 46.1ZM37.6 32.3L37.7 34.4L36.1 34.6L36.1 35.1L32.7 36.5L32.4 37.7L30.7 37.7L27.9 41.4L26.5 41.3L28.8 37.9L31.9 35.9L33 33.7L34.6 32.8L35.5 31.6ZM59.3 74.6L60.7 73L60.9 70.8L59.1 70.4L59 69.8L61.2 69L62 69.2L61.8 70.2L62.5 71L63.1 69.5L62.2 68.5L62.3 67.3L64.3 67.2L66.6 66.3L66.3 69.6L61.9 72.8L62.3 74.4L61.9 75.8L60.3 76.5L60.1 77.3L59.6 77.4ZM53.9 71.7L55.3 71.8L54.1 72.3L52.2 72.2L52.1 74.6L51.4 74.6L51.3 78.5L50.8 78.8L48.5 78.3L47.5 74.9L45.4 71.6L46.4 71.3L52 72ZM46.7 48.7L43.7 49.3L40.2 48.4L39.3 50L37.5 48.8L37 47.6L37.8 47.1L39.4 47.1L40.1 44.3L41.3 44.1L45.8 41.2L47.3 41.9L47.9 41.6L48.5 43.6L48.1 46.2L46.6 48.1ZM46.7 48.7L47.4 50.3L45 54.1L44 53.8L42.6 55.6L41 55.7L39.7 54.1L38.5 54L38.6 51.9L39.4 50.9L39.3 49.3L40 48.5L43.7 49.3ZM58.4 61L58.7 60.1L59.5 59.7L59.8 60.7ZM28.5 46.6L28.9 48.5L25.5 48.1L25.6 47.5L27.4 47.6L25.7 47.2L25.3 46.2L26.3 45L27.9 45.5ZM29.4 51.6L28.5 52.7L27.6 51.9L27.4 51L28.8 50.4L29.1 51.7ZM67.6 59.6L67.2 56.3L67.9 55.2L69.9 54.4L72.3 50.7L72.2 49.3L73.6 48.7L73.8 49.8L71.9 54.5ZM72.2 49.3L72.3 50.7L71.8 51.9L69.1 51.4L68 50.3L68.4 49.5L69.2 50.3ZM58 74.6L59.3 74.6L59.5 76.8L58.7 77.4L60 77.5L59.6 78.3L55.8 81.3L50.3 81.8L50.1 80.4L49 78.6L49.4 78.3L50.1 78.8L51.3 78.5L51.4 76.3L51.8 77.6L52.5 77.6L53.5 76.6L55.1 76.9ZM62.1 55.6L59.8 56.3L58.8 55.4L57.8 55.7L54.7 52.5L55.4 51.2L57.6 51.9L59 51.1L59.9 51.5L60.8 50.4L60.5 49.7L61.3 49.5L62.1 52.2L61.3 52.8L63 54.6ZM62 51.6L60.9 49.5L59.9 51.5L59 51.1L58.2 51.9L56.5 51.8L55.9 51.1L54.3 52.5L53.3 49.5L52.9 49.4L53.7 47.3L54.4 47.1L54.3 43.8L55 43.8L55 42.3L63.2 41.9L63.9 44.3L64.7 44.8L63.7 45.7L63.4 49ZM61.2 65.8L59.7 65.2L58.6 62.6L59.7 61.4L59.5 59.7L62.1 59.6L64.8 60.9L65.9 62L65.8 64.8L66.5 66.1L64.3 67.2L62.6 67.2L62.2 65.9ZM36.5 50.2L37.3 50.4L37.6 51.2L37.8 54L36.9 53.5ZM45.8 34L44.4 36.2L44.2 34.8L43.4 33.9L44 31.6L45 31.1L45.3 31.5L45.8 31.3L45.4 31.9L45.7 32.6L45 33.4ZM62.1 59.6L58.8 60L59.1 58.3L60.1 57.4L59.7 57.1L59.8 56.2L62.1 55.6L62.4 56L62.8 57.4ZM32.4 37.2L32.2 38.5L30.2 38.3L28.9 41.6L26.5 41.3L26.3 41.7L26.5 41.3L27.9 41.4L30.7 37.7L32.4 37.7ZM59.1 70.2L58 70.5L56.4 71.9L53.9 71.7L53 70.8L53 68.6L54.5 68.5L54.5 67.1L56 67.7L56.9 67.5L58.7 68.7L58.8 67.8L58.2 68L57.8 67.5L57.8 65.8L58.2 65.2L59.6 65L61.4 65.9L61.7 66.5L60.8 68.7L61.2 69L59 69.8ZM59.3 74.6L57.1 74.2L55.3 71.8L56.6 71.9L58.6 70.2L60.9 70.8L60.7 73ZM76.2 28.7L77.4 28.6L77.5 27.6L78.4 28.6L78.7 28L79.3 27.9L78.5 29L79 29.6L79.1 30.5L78.7 30.6L79.1 32.1L78.3 32.8L78.4 33.8L76.9 34.6L75.9 34.4L76.1 33.6L74.6 31.5L74.5 30.3L75.3 30.5L75.6 29ZM65 27.7L66.4 29.2L64.6 28.6L64.2 27.9ZM65 27.7L65.8 27.8L65.6 27.2L66.5 27.6L66.7 27.2L68 28.1L67.6 28.2L67.7 29.4L66.9 28.6L66.4 29.2ZM89.3 36.2L89.6 37.1L88.5 35.3L88.7 36.9L87.1 33.5L87.8 34.2L88.4 34ZM90.9 34.2L90.4 33.3L90.6 35.4L88.5 31.4L87.5 30.5L87.4 32.2L86.8 32.1L86.9 32.9L86.6 32.4L86 32.9L82.8 31.5L81.8 29.4L78.4 27.2L77.9 26.2L78.5 25.8L78.9 24.3L77.5 22.7L78 22.3L77.1 21.1L77.7 20.9L76.9 19.6L81.7 22.2L82.9 21.8L80.6 18.5L75.2 13.9L84 22.1ZM63 27.2L62 26.5L64.6 26.8L65.9 27.7L63.3 27.8ZM80.9 38L82 37.2L80.7 35.4L80.8 34.7L81.4 34.6L81.5 32.1L81.3 31.2L80 29.7L80.7 29.6L81 28.8L82.8 31.4L83.9 31.9L84 33L84.9 33.5L86.9 33.8L86.6 32.4L87.2 33.2L87.7 32.8L87.3 30.8L87.5 30.5L88.2 31.3L89.4 36.1L88.6 35.2L88.4 34.1L87.8 34.2L87.1 33.5L88.7 36.9L88.2 36.5L88.5 38.2L87.5 42.4L88.2 46.5L87.5 48.5L84.7 42.8L83.5 38.9L83 38.6L83.2 39.5L82.6 39.9L81.6 39L82.1 38.2L81.6 38.6ZM92.9 47.9L93.9 50.5L93.7 55ZM70.5 29.8L71.9 29L74.1 29.7L74.9 32.2L76.1 33.6L75.9 34.4L77.8 36.1L77.4 37.8L75.1 37.7L74.5 36.7L72.9 37.3L71.3 36.5L70.2 35.1L69.5 34.9L69.4 35.3L68.2 33.6L66.8 32.7L66.9 31.4L65.3 30L65.1 28.8L66.2 29.3L66.9 28.6L68 29.9L69.3 30.4L70.7 30.1ZM64.5 30.7L65.8 30.5L66.9 31.4L66.8 32.7L68.2 33.6L69.4 35.3L68.6 35.4L68.4 36.1L67.3 36.1L63.4 34.3L63 33.5L64.2 32.6L64 31.2ZM61.2 34.1L62 34.3L63 33.5L63.5 34.3L62.2 34.9L63 35.6L61.9 36.6L61.2 36.5ZM76 25.1L75.7 26.4L73.2 24.8L72.2 25.2L70 24.1L69.1 24.7L70.3 27L69.2 26.5L68.6 26.9L68.3 26.3L66.8 25.4L67.3 25.2L67 24.7L67.8 24.6L67.3 23.7L65.4 24.1L63.9 23.1L63.8 21.9L64.5 22.1L64.2 21.7L64.8 21L66.7 21.5L66.5 21.2L67.9 20.9L68.5 21.1L68.9 20.5L68.2 20.3L68.4 19.6L67.7 19.1L69.4 17.8L71.6 18.5L71.9 17.7L74.6 19.4L74.5 19L75.2 19L76.5 19.3L77.7 20.9L77.1 21.1L78 22.3L77.5 22.7L78.8 24.3L76.6 24.2L76.8 24.8L76 24.7ZM76.8 26.4L77.3 25.8L76 25.7L75.9 24.8L76.8 24.8L76.6 24.2L78.9 24.3L78.1 26.6L76.5 27ZM77 19.5L76.7 18.2L77.9 18.2L76.7 16.9L78.7 17.3L78 16.2L80.6 18.5L82.9 21.8L81.7 22.2ZM90.9 36.2L92.7 44L91.5 39.3L91.2 38.8L91.1 40.2L89.4 36.7L88.4 32.6L88 30.9L88.5 31.4ZM86.6 32.6L87 33.6L86.2 33.8L84 33L83.8 32.2L84.1 31.7L86 32.9ZM74.2 44.9L73.2 43.2L74.9 42.2L74.5 39.9L74.8 38.3L77.1 39.8L76.5 41.7L76.6 42.6L75.4 44.4ZM80.6 28.8L80.9 29.4L80 29.7L81.3 31.2L81.5 32.1L81.4 34.6L80.8 34.7L80.7 35.4L82 37.2L80.9 38L79.6 36.9L77.4 37.7L77.8 36.1L75.9 34.4L77.6 34.4L78.4 33.8L78.3 32.8L79.1 32.1L78.6 28.5L79.5 28.1ZM73.2 43.2L71.5 43.7L70.5 45.1L68 44.9L67.7 45.8L64.9 42.5L64.1 40.5L61.1 37.4L61.2 36.5L61.9 36.6L63 35.6L62.2 34.9L64.2 34.4L67.2 36.1L69.6 36.4L73 40.2L74.5 40.1L74.9 40.6L74.9 42.2ZM89.2 48.7L88.7 49.7L88.3 46.9ZM60.9 31.8L61.3 31.2L64.5 30.7L64 31.2L64.2 32.6L62 34.3L61.3 34.1L61.6 33ZM76.8 28.7L75.8 27.2L76.3 25.9L76.8 26.4L76.5 27L78 26.6L79.4 27.8L78.4 28.6L77.5 27.6L77.4 28.6ZM90.9 36.2L91.6 38.1L91.7 37.1L92.6 39.6L92.9 42L92.4 41.3L93.5 46.9ZM63.1 27.8L63.8 27.7L65.3 28.8L64.9 29.1L65.8 30.5L61.3 31.2L61.1 31.9L60.9 31.1L59.1 31.8L58.1 31.3L57.2 31.8L55.8 31.5L56.2 31.3L55.7 31.3L55.6 30.6L55 30.5L55.5 30.3L54.8 29.3L56.4 28.9L56.8 28.7L56.4 28.4L59.6 27.7L61.6 28.3ZM55.7 27.9L56.3 28.5L54.8 29.2L54.8 28.1ZM70.3 27L70.8 27L71 25.9L76.2 28.7L75.6 29L75.1 30.6L74.1 29.7L71.9 29L70.5 29.8L69.1 27.8L69 27.4L69.8 27.2L69.1 26.6L68.9 27.3L68.6 26.9L69.2 26.5ZM74.6 37.9L74.5 40.2L73 40.2L72.2 39.4L73.5 39.2L74.4 37.6ZM76 25.1L76 25.7L77.3 25.8L77.1 26.4L76 26.2L76.2 27.1L75.8 27.2L76.8 28.7L76.2 28.7L71 25.9L70.8 27L70.3 27L69.1 24.7L70 24.1L72.2 25.2L73.2 24.8L75.7 26.4ZM90.9 34.2L92.9 40.4L93.4 44.1L92.4 38.7L90.4 34.2L90.4 33.3ZM74.2 44.9L73.5 46L68.5 48.6L67.7 46.7L68 44.9L70.5 45.1L71.5 43.7L73.2 43.2ZM51.5 28.1L51.8 29L51.2 29.6L50.7 27.9L51 27.6ZM45.6 24.5L47.4 24.4L47.4 24L48.5 23.5L49.6 24.1L48.2 25.1ZM56.4 21.5L56 22L52.7 22L52.5 20.6L53.5 20.4L54.3 19.3L55.2 19.4L56.7 20.7L56.1 21ZM42.6 22L43.8 21.9L44.3 22.6L43.8 23.1ZM49.8 27.4L48.8 25.9L50.7 26.1L50.8 27L50.3 27.6ZM55.7 27.9L52.8 28.4L52.4 26.8L55.8 26.7L55.4 27.6ZM49.2 25.1L50.8 25.9L48.8 25.9L49.8 27.4L47.6 25.7L48.6 25.7ZM50.4 23.2L49.5 23.8L48.1 23.8L47.1 22.7L48.6 22.3ZM45.9 20L45.9 19L46.6 18.8L45.9 18.9L47 18.4L46.6 19L47 19.2ZM52.6 18.4L52.2 17.7L54 17.6L53.8 18.5ZM51.9 14.5L51.6 13.5L50.7 13.1L51.9 13.2L52.2 12.7L53 12.8L54.6 16L53.7 17L51.7 17.3L51.1 16L52.4 14.9ZM44.7 24.3L43.7 25.1L44.1 25L44.2 26.7L43.4 27.2L42.2 26.8L41.7 27.5L41.1 27.5L39.3 26.9L39.9 25.3L40.1 25.7L40 24.9L39.9 24.3L38.7 23.6L40.4 23.4L40.3 22.7L41.4 23L42.6 22L45.1 23.4ZM45.6 24.4L44.6 24.3L45.1 23.4L44.2 23.1L44.3 21.7L45.1 20.7L46.3 20.8L45.9 20L46.8 20.5L48.1 20.5L48.5 22.3L47.1 22.7L47.9 23.6L47.4 24.4ZM54.8 28.1L54.7 28.8L53.4 28.8L53.5 29.3L52.7 29L53.2 29.9L52.7 30.1L53.7 30.9L52.9 31L53.2 31.8L52.4 31.6L51.9 30.8L53.1 30.6L51.9 30.5L51.2 29.5L51.7 28.8ZM52.1 23.9L52.5 24.1L51.6 25.2L50 25.5L49 24.8L49.6 24.1ZM40.2 13.7L40.4 14.1L39.6 14.5L38.2 14.8L37.4 14.4L38 14.1L37.5 13.9L38.3 13.8L37.7 13.6L38.5 13.3L38.4 13.9ZM39.3 19.4L38.7 19.8L39.4 20.1L38.9 21.1L37.1 21.3L38 20.7L37.5 20.7L38.1 20.4L37.6 20.3L37.9 19.8ZM44.2 25.3L45 25L45.2 25.4L47 24.7L47.7 25L47.8 25.6L46.9 25.7L46.9 26.5L50.2 29.5L49.4 29L49.5 30L48.6 30.8L48.6 29.3L46.1 27.7L45.6 26.6L45 26.3L44.2 26.7ZM48.5 30.6L48.2 31.6L46.6 30.8ZM45.2 28.7L45 29.8L44.4 30L44.4 28.6ZM53.7 19.6L51.3 19.1L51.5 18.6L52.5 18.9L53 18.3L54.1 18.7L54.3 19.3ZM52.1 20.3L51.4 19.8L51.7 19.2L52.9 19.2L53.8 19.8L53.4 20.4ZM54.4 23.9L55.7 24L56.4 25L55.8 25L55.5 25.6L55.3 24.7ZM50.3 27.7L50.5 27L51.3 27.4L50.8 28.1ZM45.1 20.9L44.2 22.3L43.1 21.8L43.9 21ZM51.5 28.1L52.4 27.7L52.9 28.2L51.7 28.8ZM50.7 13.1L49.7 13.6L48.7 15.3L48 15.5L48.1 16.6L47.5 17.8L47.1 17.4L46 18.2L45.1 17.9L45.9 17L45.1 17.4L45.2 16.7L46.2 16.6L45.3 16.6L46 16.3L45.4 16.1L47.8 15.4L47.2 15.4L50.1 12.9L52.4 12.2L53.4 12.8ZM49.8 9.2L50.5 9.6L49.8 10.3L49.3 10L49.8 9.8L49.3 9.8L49.8 9.6L49.2 9.7L49 9.3ZM52.7 22L53 22.6L52.4 23.5L50.5 23.3L48.5 22.4L48.3 20.6L50 20.1L52.2 20.3ZM35.5 29.5L35 30.6L34.1 30.6L34.6 29.2L34.2 29.3L35.6 27.2L36.5 27.7L35.4 28.9ZM55.5 25.6L56.3 25.7L55.8 26.7L52.7 26.8L51.2 25.3L52.6 24.1L54.4 23.9ZM75.2 13.9L78.8 17.2L78.1 17L78.1 17.4L76.7 16.9L77.9 18.2L76.7 18.2L77 19.6L75.2 19L74.5 19L74.6 19.4L71.9 17.7L71.6 18.5L69.4 17.8L67.7 19.1L69 20.9L66.7 21.5L64.8 21L64.2 21.7L64.5 22.1L63.8 21.9L64 23.1L65.8 24.3L65.1 25.5L66.7 27.2L66.5 27.6L64.6 26.8L62 26.6L59.9 25.6L60.7 24.9L60.2 24.6L60.9 24.3L60.3 24.2L60.9 23.8L60.7 22.7L58.5 22.4L57.3 21.3L56.4 21.5L56.1 21L56.7 20.7L55.6 19.5L54 18.9L53.9 17.3L54.6 17.2L53.7 17L54.7 15.7L54 15.4L52.9 13.1L53.6 12.6L56.5 13.4L56.8 13.7L56.3 14.1L54.1 13.8L56.5 15.2L56 14.6L57 14.8L56.8 14.3L57.2 13.9L57.9 14L56.8 12.9L58.3 13.6L59.2 12.5L60.8 12.5L60.3 11.9L62.5 12.1L60.7 11.2L60.4 10.5L63.3 11.9L64 12.6L63.5 12.7L64.4 12.8L63.3 11.6L64.7 11.9L62.9 11.6L60.9 10.4L63.6 10.8L61 9.9L61.9 9.8L59.3 8.1L61 8.1L63 9L61.8 7.9L63.4 8.2L60.1 7.2ZM58 9.6L57.9 10.8L57.2 10.8L57.1 9.8ZM51.2 25.3L51.8 26.2L52.6 26.3L52.6 27.7L50.7 27L50.5 25.5ZM52.3 23.5L52.1 23.9L50.4 24.3L49.4 23.9L50.7 23.2ZM47.7 25.7L47.7 25L49.2 25.1L48.6 25.7ZM39.2 26.7L41.7 27.8L40.1 28.5L38.8 30.6L35.7 31.5L35 30.3L35.4 28.9L36.5 27.7L35.2 27.3L35.3 26.6L36.2 26.2ZM47.4 17.8L48.1 16.6L47.9 15.6L48.7 15.3L49.4 13.8L50.6 13.1L51.6 13.5L51.9 14.5L51.4 14.5L50.9 15.4L49.8 16.1L49.7 16.9L50.4 17.4L49.3 18L49.1 19.3L47.8 19.7ZM46 24.8L45.2 25.4L44.9 25L43.6 25.2L44.3 24.3L45.2 24.2ZM60.4 24.3L59 24.8L59 25.3L57.3 25L57.6 24.8L57.1 24.4L57.2 24.8L55.8 25.8L55.8 25L56.4 25L55.7 24L54.8 23.8L53.6 24.3L52.1 23.9L53 21.8L56 22L56.1 21.5L57.3 21.3L58.5 22.4L60.7 22.7L60.9 23.8ZM40.4 21.6L39.3 21.3L40.7 20.6L40.9 19.7L40.1 19.7L40.5 19.1L39.9 19.3L40.5 18.6L40.1 18.6L41 17.7L41.8 17.7L41.1 18.2L42 18.3L40.9 19L41.6 19.4L41.8 20.9L42.5 21.1L41.9 22.1L38.7 22.4ZM36.1 8.3L34 9L37.4 8L32 9.9L26.3 12.9L22.4 15.9L29.8 11.4L26.7 13.8L28.4 13.2L25.3 15.8L25.3 16.3L24.2 16.6L25.1 16.5L24.1 17.6L22.5 18.1L22 17.5L20.8 17.9L17.7 20.1L20.8 17.1ZM44.7 7.3L39.6 7.9L44 7ZM36.1 8.6L37.8 8.3L34.1 10L32.8 11.2L31.6 11.6L32.3 10.8L29.4 12.5L31.1 10.8L33 10.3L36 8.5L38 8.1ZM19.1 20L20.3 18.6L18.9 19.3L21.5 18.1L19.8 19.7L19.6 20.6L18.3 21.1L19.4 20.3L19.7 19.9ZM23.8 17.9L22.5 18.8L22.9 18.6L22.4 19.2L22.8 19.2L21.3 20.7L21.9 20L21.1 20.3L21.7 20L21.1 19.6ZM46.3 7.9L45.4 8.6L46.8 8.6L43.4 9.7L42.2 10.8L40.9 10.7L41.7 10.9L40.8 10.8L41.2 10.8L41.1 11.3L40.7 11.8L40.2 11.2L39.2 11.5L40.3 11.9L34.5 12.8L30.4 14.9L31 14.2L30.3 14.3L30.7 13.8L32.8 12L36 10.7L37.3 9.9L36.6 10L39.4 8.8L39.7 8.3L42.7 7.7ZM13.2 73.6L16.5 78.3L9.4 66.8L12 71.6L12.5 72.1L12.1 71L12.5 71.6ZM7.4 61.1L6.9 58.3L9.5 65.6L9.9 66.9L9.2 66L9.8 67.8ZM6.2 49.9L6.5 47.9L6.6 48.8L7 47.9L7.2 51.2L7.7 51.1L7.8 50.6L8.4 51.3L8.9 50L9.2 52.6L8.5 54.2L9 54L9.4 55.5L10 54.3L10.9 55.5L11 56.6L11.4 56.2L12.7 57L14.8 59.4L15.2 62.3L14.1 64.4L15 70.5L14.9 71L14 70.7L13.5 71.7L15.3 76.3L13.2 73.6L12.5 71.6L10.4 68.2L7.3 60L6.1 53.4ZM6.9 41.3L6.3 44.7L6.1 53.5ZM7 47.9L7.4 45.5L7.6 51L7.1 51ZM9.9 66.9L12.5 72.1L9.8 67.7L9.2 66ZM8.2 50.3L8.1 51L7.6 50.9L7.7 47.9L8.4 48.5ZM7.4 45.5L7 48.1L6.6 48.8L6.5 47.9L6.3 50.5L6.8 41.8L6.6 43.3L7 41.2L6.8 42.8L7 43.6L7.4 43.5Z" fill="#3fae6b" stroke="#3fae6b" stroke-width="0.5" stroke-linejoin="round"/>
  </g>
  <ellipse cx="37" cy="31" rx="15" ry="9" fill="#ffffff" opacity="0.12"/>
  <circle cx="50" cy="50" r="44" fill="none" stroke="#cfe2f6" stroke-width="1" opacity="0.45"/>
</svg>
